<svg width="1060" height="167" viewBox="0 0 1060 167" fill="none" xmlns="http://www.w3.org/2000/svg">
<path d="M106.26 14C113.37 14.0002 119.944 17.7742 123.53 23.9131L150.689 70.4131C154.329 76.6451 154.329 84.3549 150.689 90.5869L123.53 137.087C119.944 143.226 113.37 147 106.26 147H97.4615L88.7428 109.249C88.3135 107.39 88.0994 106.46 88.0865 106.389C87.706 104.282 87.7252 104.241 89.6061 103.22C89.6696 103.185 90.2475 102.906 91.403 102.349C100.979 97.7301 107.587 87.9308 107.587 76.5869C107.586 60.7988 94.7878 48 78.9996 48C63.2116 48.0002 50.4129 60.7989 50.4127 76.5869C50.4127 87.9306 57.0204 97.7299 66.5963 102.349C67.7502 102.905 68.3281 103.184 68.3932 103.22C70.2743 104.242 70.2943 104.283 69.9137 106.39C69.9001 106.464 69.685 107.393 69.2565 109.249L60.5377 147H51.7399C44.6306 147 38.0559 143.226 34.4703 137.087L7.31018 90.5869C3.6704 84.355 3.6704 76.645 7.31018 70.4131L34.4703 23.9131C38.0559 17.7742 44.6306 14.0001 51.7399 14H106.26ZM107.429 136.93C107.467 136.925 107.506 136.922 107.544 136.917C107.506 136.922 107.467 136.925 107.429 136.93ZM107.738 136.889C107.773 136.883 107.808 136.878 107.843 136.872C107.808 136.878 107.773 136.883 107.738 136.889ZM108.012 136.844C108.066 136.834 108.121 136.825 108.174 136.814C108.121 136.825 108.066 136.834 108.012 136.844ZM108.311 136.786C108.369 136.774 108.427 136.761 108.484 136.748C108.427 136.761 108.369 136.774 108.311 136.786ZM108.66 136.706C108.691 136.698 108.722 136.691 108.753 136.683C108.722 136.691 108.691 136.698 108.66 136.706ZM108.955 136.628C109 136.615 109.045 136.603 109.089 136.59C109.045 136.603 109 136.615 108.955 136.628ZM109.238 136.545C109.282 136.531 109.327 136.516 109.371 136.502C109.327 136.516 109.282 136.531 109.238 136.545ZM109.546 136.443C109.595 136.426 109.643 136.408 109.692 136.391C109.643 136.408 109.595 136.426 109.546 136.443ZM109.826 136.341C109.874 136.322 109.922 136.303 109.97 136.284C109.922 136.303 109.874 136.322 109.826 136.341ZM110.126 136.222C110.166 136.205 110.205 136.187 110.245 136.17C110.205 136.187 110.166 136.205 110.126 136.222ZM110.419 136.094C110.442 136.083 110.465 136.072 110.489 136.061C110.465 136.072 110.442 136.083 110.419 136.094ZM111.505 135.514C111.327 135.623 111.146 135.727 110.962 135.825C111.146 135.727 111.327 135.623 111.505 135.514ZM111.617 135.441C111.667 135.41 111.717 135.378 111.766 135.346C111.717 135.378 111.667 135.41 111.617 135.441ZM111.885 135.266C111.933 135.234 111.979 135.201 112.026 135.168C111.979 135.201 111.933 135.234 111.885 135.266ZM112.172 135.063C112.202 135.041 112.233 135.019 112.263 134.996C112.233 135.019 112.202 135.041 112.172 135.063ZM112.422 134.874C112.455 134.848 112.488 134.822 112.521 134.796C112.488 134.822 112.455 134.848 112.422 134.874ZM112.647 134.691C112.685 134.66 112.723 134.629 112.76 134.597C112.723 134.629 112.685 134.66 112.647 134.691ZM112.891 134.483C112.925 134.453 112.959 134.422 112.993 134.392C112.959 134.422 112.925 134.453 112.891 134.483ZM113.121 134.273C113.153 134.243 113.185 134.213 113.217 134.182C113.185 134.213 113.153 134.243 113.121 134.273ZM113.348 134.053C113.388 134.012 113.428 133.972 113.467 133.931C113.428 133.972 113.388 134.012 113.348 134.053ZM113.54 133.854C113.593 133.798 113.645 133.741 113.697 133.684C113.645 133.741 113.593 133.798 113.54 133.854ZM113.757 133.616C113.808 133.559 113.857 133.502 113.906 133.443C113.857 133.502 113.808 133.559 113.757 133.616ZM113.967 133.369C114.005 133.324 114.041 133.278 114.078 133.232C114.041 133.278 114.005 133.324 113.967 133.369ZM114.542 132.604C114.482 132.693 114.42 132.78 114.357 132.866C114.484 132.691 114.606 132.512 114.722 132.328L114.542 132.604ZM15.7858 85.2588C15.8375 85.3543 15.8909 85.4497 15.9459 85.5439C15.8891 85.4466 15.8342 85.3478 15.7809 85.249L15.7858 85.2588ZM142.765 84.0547C142.571 84.5648 142.335 85.0636 142.054 85.5439C142.335 85.0636 142.571 84.5648 142.765 84.0547ZM15.3649 84.3818C15.4297 84.5356 15.4991 84.6878 15.5719 84.8389C15.5414 84.7756 15.5112 84.7122 15.4821 84.6484L15.3649 84.3818ZM142.822 83.8994C142.839 83.8514 142.858 83.804 142.875 83.7559C142.858 83.804 142.839 83.8514 142.822 83.8994ZM142.922 83.6084C142.943 83.5466 142.963 83.4849 142.982 83.4229C142.963 83.4849 142.943 83.5466 142.922 83.6084ZM143.007 83.3359C143.03 83.2602 143.052 83.1845 143.073 83.1084C143.052 83.1845 143.03 83.2602 143.007 83.3359ZM143.097 83.0098C143.115 82.9428 143.132 82.8759 143.148 82.8086C143.132 82.8759 143.115 82.9428 143.097 83.0098ZM14.8629 82.8623C14.8737 82.9067 14.8857 82.9508 14.8971 82.9951C14.8779 82.9207 14.8598 82.8462 14.8424 82.7715L14.8629 82.8623ZM14.775 82.458C14.794 82.5532 14.8138 82.6484 14.8356 82.7432C14.8138 82.6484 14.794 82.5532 14.775 82.458ZM143.177 82.6787C143.194 82.6052 143.21 82.5318 143.225 82.458C143.21 82.5318 143.194 82.6052 143.177 82.6787ZM14.7194 82.1543C14.7314 82.226 14.7438 82.2977 14.7574 82.3691C14.7439 82.2977 14.7314 82.226 14.7194 82.1543ZM143.242 82.3691C143.255 82.3015 143.267 82.2338 143.278 82.166C143.267 82.2338 143.255 82.3015 143.242 82.3691ZM14.6725 81.8486C14.6831 81.9265 14.6942 82.0044 14.7067 82.082C14.6942 82.0044 14.6831 81.9265 14.6725 81.8486ZM143.297 82.0508C143.307 81.9857 143.317 81.9207 143.326 81.8555C143.317 81.9207 143.307 81.9857 143.297 82.0508ZM14.6344 81.5342C14.6409 81.5964 14.6482 81.6586 14.6559 81.7207C14.6482 81.6586 14.6409 81.5964 14.6344 81.5342ZM143.342 81.7207C143.35 81.6586 143.357 81.5964 143.364 81.5342C143.357 81.5964 143.35 81.6586 143.342 81.7207ZM14.6061 81.2031C14.611 81.2728 14.6163 81.3425 14.6227 81.4121C14.6163 81.3425 14.611 81.2728 14.6061 81.2031ZM143.378 81.3955C143.382 81.3408 143.387 81.2862 143.391 81.2314C143.387 81.2862 143.382 81.3408 143.378 81.3955ZM143.402 81.0645C143.405 81.0078 143.408 80.9512 143.41 80.8945C143.408 80.9512 143.405 81.0078 143.402 81.0645ZM14.5905 80.9248C14.5924 80.971 14.5947 81.0173 14.5973 81.0635C14.5947 81.0173 14.5924 80.971 14.5905 80.9248ZM14.5817 80.5654C14.582 80.6234 14.5822 80.6813 14.5836 80.7393C14.5822 80.6813 14.582 80.6234 14.5817 80.5654ZM143.415 80.7373C143.416 80.6943 143.417 80.6514 143.418 80.6084C143.417 80.6514 143.416 80.6943 143.415 80.7373ZM14.5836 80.2637C14.5823 80.3206 14.582 80.3776 14.5817 80.4346C14.582 80.3776 14.5823 80.3206 14.5836 80.2637ZM143.418 80.3906C143.417 80.3555 143.416 80.3203 143.416 80.2852C143.416 80.3203 143.417 80.3555 143.418 80.3906ZM14.5992 79.9033C14.5953 79.9687 14.5911 80.0341 14.5885 80.0996C14.5911 80.0341 14.5953 79.9687 14.5992 79.9033ZM143.409 80.0869C143.407 80.0449 143.405 80.0029 143.403 79.9609C143.405 80.0029 143.407 80.0449 143.409 80.0869ZM14.6227 79.5908C14.6159 79.665 14.6092 79.7392 14.6041 79.8135C14.6092 79.7392 14.6159 79.665 14.6227 79.5908ZM143.39 79.7617C143.388 79.7262 143.385 79.6907 143.382 79.6553C143.385 79.6907 143.388 79.7262 143.39 79.7617ZM14.653 79.3057C14.6467 79.3578 14.6398 79.4098 14.6344 79.4619C14.6398 79.4098 14.6467 79.3577 14.653 79.3057ZM143.36 79.4248C143.356 79.3873 143.351 79.35 143.346 79.3125C143.351 79.35 143.356 79.3873 143.36 79.4248ZM143.329 79.165C143.319 79.0933 143.308 79.0218 143.297 78.9502C143.308 79.0218 143.319 79.0933 143.329 79.165ZM14.7311 78.7705C14.7257 78.8014 14.7206 78.8323 14.7155 78.8633C14.7329 78.7582 14.7523 78.6534 14.7731 78.5488L14.7311 78.7705ZM143.275 78.8135C143.268 78.7711 143.259 78.7289 143.252 78.6865C143.259 78.7289 143.268 78.7711 143.275 78.8135ZM14.8405 78.2344C14.8175 78.3331 14.7959 78.432 14.776 78.5312C14.7959 78.432 14.8175 78.3331 14.8405 78.2344ZM143.214 78.4941C143.203 78.4384 143.192 78.3827 143.179 78.3271C143.192 78.3827 143.203 78.4384 143.214 78.4941ZM14.899 77.999C14.8812 78.0683 14.8637 78.1375 14.8473 78.207C14.8637 78.1375 14.8812 78.0683 14.899 77.999ZM143.151 78.2031C143.133 78.1261 143.113 78.0493 143.093 77.9727C143.113 78.0493 143.133 78.1261 143.151 78.2031ZM143.071 77.8877C143.048 77.8035 143.025 77.7194 143 77.6357C143.025 77.7195 143.048 77.8035 143.071 77.8877ZM142.983 77.5811C142.966 77.5268 142.949 77.4729 142.931 77.4189C142.949 77.4729 142.966 77.5268 142.983 77.5811ZM15.7799 75.751C15.5191 76.2342 15.3014 76.7338 15.1256 77.2441C15.3373 76.6294 15.6108 76.0299 15.9459 75.4561L15.7799 75.751ZM142.518 76.3516C142.609 76.5496 142.691 76.75 142.768 76.9521C142.727 76.8436 142.684 76.7353 142.639 76.6279L142.518 76.3516ZM114.359 28.1348C114.55 28.3981 114.729 28.6718 114.895 28.9561C114.729 28.6718 114.55 28.3981 114.359 28.1348ZM114.119 27.8184C114.069 27.7546 114.018 27.6913 113.966 27.6289C114.018 27.6913 114.069 27.7546 114.119 27.8184ZM113.844 27.4854C113.817 27.4538 113.791 27.4218 113.763 27.3906C113.791 27.4218 113.817 27.4538 113.844 27.4854ZM113.644 27.2588C113.609 27.2203 113.574 27.1814 113.539 27.1436C113.574 27.1814 113.609 27.2203 113.644 27.2588ZM113.165 26.7676C113.143 26.7467 113.121 26.7257 113.099 26.7051C113.121 26.7257 113.143 26.7467 113.165 26.7676ZM112.973 26.5898C112.93 26.551 112.888 26.5117 112.844 26.4736C112.888 26.5117 112.93 26.551 112.973 26.5898ZM112.749 26.3926C112.7 26.3509 112.651 26.3093 112.601 26.2686C112.651 26.3093 112.7 26.3509 112.749 26.3926ZM112.487 26.1768C112.447 26.1453 112.408 26.1139 112.368 26.083C112.408 26.1139 112.447 26.1453 112.487 26.1768ZM112.237 25.9834C112.191 25.9491 112.145 25.9153 112.098 25.8818C112.145 25.9153 112.191 25.9491 112.237 25.9834ZM111.956 25.7822C111.926 25.7617 111.897 25.7409 111.867 25.7207C111.897 25.7409 111.926 25.7617 111.956 25.7822ZM111.715 25.6201C111.668 25.5894 111.621 25.5592 111.573 25.5293C111.621 25.5592 111.668 25.5894 111.715 25.6201ZM111.433 25.4434C111.394 25.4198 111.355 25.3961 111.316 25.373C111.355 25.3961 111.394 25.4198 111.433 25.4434ZM111.18 25.2949C111.129 25.2658 111.077 25.2372 111.025 25.209C111.077 25.2372 111.129 25.2658 111.18 25.2949ZM110.88 25.1318C110.845 25.1137 110.81 25.0958 110.775 25.0781C110.81 25.0958 110.845 25.1137 110.88 25.1318ZM110.59 24.9873C110.556 24.9709 110.522 24.9545 110.488 24.9385C110.522 24.9545 110.556 24.9709 110.59 24.9873ZM110.312 24.8584C110.273 24.841 110.234 24.8236 110.194 24.8066C110.234 24.8236 110.273 24.841 110.312 24.8584ZM109.731 24.6221C109.691 24.6071 109.65 24.5926 109.609 24.5781C109.65 24.5926 109.691 24.6071 109.731 24.6221ZM109.41 24.5098C109.377 24.4989 109.344 24.4881 109.311 24.4775C109.344 24.4881 109.377 24.4989 109.41 24.5098ZM109.128 24.4199C109.088 24.408 109.047 24.3972 109.007 24.3857C109.047 24.3972 109.088 24.408 109.128 24.4199ZM108.506 24.2559C108.458 24.2447 108.41 24.2341 108.361 24.2236C108.41 24.2341 108.458 24.2447 108.506 24.2559ZM107.89 24.1338C107.823 24.1227 107.756 24.1132 107.688 24.1035C107.756 24.1132 107.823 24.1227 107.89 24.1338Z" fill="black"/>
<path d="M241.636 135.184C234.98 135.184 228.948 134.56 223.54 133.312C218.132 132.064 213.452 130.192 209.5 127.696C205.548 125.096 202.428 121.82 200.14 117.868C197.852 113.916 196.5 109.34 196.084 104.14L218.08 96.808C218.392 101.176 219.64 104.816 221.824 107.728C224.008 110.64 226.92 112.824 230.56 114.28C234.304 115.632 238.464 116.308 243.04 116.308C247.408 116.308 251.048 115.788 253.96 114.748C256.976 113.604 259.212 112.2 260.668 110.536C262.228 108.768 263.008 106.896 263.008 104.92C263.008 102.632 262.02 100.76 260.044 99.304C258.068 97.744 255.364 96.444 251.932 95.404C248.5 94.26 244.496 93.168 239.92 92.128C234.72 90.88 229.624 89.528 224.632 88.072C219.64 86.616 215.116 84.744 211.06 82.456C207.004 80.064 203.78 77.048 201.388 73.408C199.1 69.664 197.956 64.984 197.956 59.368C197.956 53.024 199.568 47.512 202.792 42.832C206.016 38.152 210.748 34.512 216.988 31.912C223.228 29.208 230.924 27.856 240.076 27.856C249.124 27.856 256.82 29.156 263.164 31.756C269.508 34.356 274.396 37.996 277.828 42.676C281.26 47.252 283.132 52.608 283.444 58.744L260.98 65.14C260.98 62.124 260.46 59.472 259.42 57.184C258.484 54.896 257.132 53.024 255.364 51.568C253.596 50.008 251.412 48.864 248.812 48.136C246.212 47.304 243.248 46.888 239.92 46.888C235.968 46.888 232.588 47.356 229.78 48.292C227.076 49.228 225.048 50.476 223.696 52.036C222.344 53.492 221.668 55.208 221.668 57.184C221.668 59.68 222.708 61.76 224.788 63.424C226.972 64.984 229.884 66.336 233.524 67.48C237.268 68.52 241.376 69.56 245.848 70.6C250.32 71.536 254.948 72.732 259.732 74.188C264.516 75.54 268.988 77.36 273.148 79.648C277.308 81.936 280.636 85.056 283.132 89.008C285.732 92.856 287.032 97.744 287.032 103.672C287.032 110.016 285.316 115.58 281.884 120.364C278.556 125.044 273.512 128.684 266.752 131.284C259.992 133.884 251.62 135.184 241.636 135.184ZM296.112 133V50.632H321.228V133H296.112ZM308.748 39.088C303.964 39.088 300.272 38.1 297.672 36.124C295.176 34.044 293.928 31.132 293.928 27.388C293.928 23.436 295.176 20.472 297.672 18.496C300.272 16.416 303.964 15.376 308.748 15.376C313.636 15.376 317.328 16.416 319.824 18.496C322.424 20.472 323.724 23.384 323.724 27.232C323.724 31.08 322.424 34.044 319.824 36.124C317.328 38.1 313.636 39.088 308.748 39.088ZM367.736 161.86C358.584 161.86 351.044 161.132 345.116 159.676C339.292 158.324 335.028 156.244 332.324 153.436C329.62 150.732 328.268 147.404 328.268 143.452C328.268 138.668 330.14 134.768 333.884 131.752C337.732 128.736 343.348 127.02 350.732 126.604V123.328C345.012 123.328 340.592 122.756 337.472 121.612C334.456 120.468 332.948 118.336 332.948 115.216C332.948 112.304 334.456 109.652 337.472 107.26C340.488 104.868 345.48 102.996 352.448 101.644V98.368C346.104 97.848 341.06 95.768 337.316 92.128C333.572 88.384 331.7 83.496 331.7 77.464C331.7 72.368 333.156 67.74 336.068 63.58C338.98 59.316 343.348 55.936 349.172 53.44C354.996 50.84 362.276 49.54 371.012 49.54H413.756V68.416L387.704 64.984V68.728C394.464 69.664 399.3 71.224 402.212 73.408C405.124 75.592 406.58 78.66 406.58 82.612C406.58 86.772 405.124 90.464 402.212 93.688C399.404 96.912 395.4 99.46 390.2 101.332C385 103.1 378.812 103.984 371.636 103.984C370.388 103.984 368.984 103.932 367.424 103.828C365.968 103.724 363.212 103.464 359.156 103.048C357.492 104.504 356.192 105.752 355.256 106.792C354.32 107.728 353.852 108.612 353.852 109.444C353.852 110.068 354.112 110.588 354.632 111.004C355.152 111.42 355.88 111.732 356.816 111.94C357.856 112.044 358.948 112.096 360.092 112.096H385.208C387.288 112.096 389.992 112.252 393.32 112.564C396.752 112.772 400.132 113.552 403.46 114.904C406.892 116.256 409.752 118.44 412.04 121.456C414.432 124.472 415.628 128.788 415.628 134.404C415.628 140.54 413.912 145.636 410.48 149.692C407.048 153.852 401.796 156.92 394.724 158.896C387.652 160.872 378.656 161.86 367.736 161.86ZM371.012 141.892C377.044 141.892 381.724 141.58 385.052 140.956C388.38 140.332 390.668 139.344 391.916 137.992C393.268 136.64 393.944 134.976 393.944 133C393.944 131.128 393.58 129.672 392.852 128.632C392.124 127.488 391.188 126.708 390.044 126.292C388.9 125.876 387.704 125.616 386.456 125.512C385.312 125.408 384.324 125.356 383.492 125.356H363.368C359.52 125.356 356.66 126.292 354.788 128.164C353.02 129.932 352.136 132.012 352.136 134.404C352.136 136.38 352.76 137.888 354.008 138.928C355.256 140.072 357.232 140.852 359.936 141.268C362.744 141.684 366.436 141.892 371.012 141.892ZM369.92 91.504C374.392 91.504 377.72 90.308 379.904 87.916C382.192 85.524 383.336 82.508 383.336 78.868C383.336 74.916 382.192 71.692 379.904 69.196C377.616 66.596 374.34 65.296 370.076 65.296C365.812 65.296 362.484 66.596 360.092 69.196C357.7 71.692 356.504 74.916 356.504 78.868C356.504 81.26 357.024 83.444 358.064 85.42C359.104 87.292 360.612 88.8 362.588 89.944C364.564 90.984 367.008 91.504 369.92 91.504ZM431.138 133V20.68H447.674V133H431.138ZM464.352 133V53.44H479.796V72.16H480.576V133H464.352ZM520.824 133V81.832C520.824 76.32 519.42 72.212 516.612 69.508C513.908 66.804 509.852 65.452 504.444 65.452C499.764 65.452 495.604 66.492 491.964 68.572C488.428 70.652 485.62 73.512 483.54 77.152C481.564 80.792 480.576 85.108 480.576 90.1L478.548 71.068C481.148 65.14 485.152 60.46 490.56 57.028C495.968 53.596 502.26 51.88 509.436 51.88C517.964 51.88 524.672 54.272 529.56 59.056C534.448 63.84 536.892 70.184 536.892 78.088V133H520.824ZM581.116 134.56C570.716 134.56 562.448 132.272 556.312 127.696C550.176 123.12 546.692 116.672 545.86 108.352H560.836C561.564 112.928 563.644 116.464 567.076 118.96C570.612 121.352 575.396 122.548 581.428 122.548C586.732 122.548 590.788 121.612 593.596 119.74C596.404 117.868 597.808 115.216 597.808 111.784C597.808 109.288 596.976 107.208 595.312 105.544C593.752 103.776 590.632 102.32 585.952 101.176L573.16 98.212C565.152 96.236 559.172 93.324 555.22 89.476C551.372 85.524 549.448 80.688 549.448 74.968C549.448 67.792 552.1 62.176 557.404 58.12C562.812 53.96 570.196 51.88 579.556 51.88C588.812 51.88 596.248 53.96 601.864 58.12C607.584 62.28 610.808 68.104 611.536 75.592H596.56C595.936 71.848 594.116 68.988 591.1 67.012C588.188 64.932 584.184 63.892 579.088 63.892C574.304 63.892 570.612 64.776 568.012 66.544C565.516 68.208 564.268 70.548 564.268 73.564C564.268 76.06 565.204 78.14 567.076 79.804C569.052 81.468 572.276 82.872 576.748 84.016L589.852 87.292C597.444 89.164 603.164 92.232 607.012 96.496C610.86 100.656 612.784 105.7 612.784 111.628C612.784 118.804 609.976 124.42 604.36 128.476C598.848 132.532 591.1 134.56 581.116 134.56ZM664.015 134.404C656.527 134.404 650.287 132.636 645.295 129.1C640.407 125.46 637.183 120.416 635.623 113.968L637.807 113.656V164.98H621.583V53.44H637.027V71.692L635.467 71.224C637.131 65.192 640.667 60.46 646.075 57.028C651.483 53.596 657.827 51.88 665.107 51.88C672.283 51.88 678.471 53.596 683.671 57.028C688.975 60.46 693.031 65.244 695.839 71.38C698.751 77.516 700.207 84.692 700.207 92.908C700.207 101.228 698.699 108.508 695.683 114.748C692.667 120.988 688.455 125.824 683.047 129.256C677.639 132.688 671.295 134.404 664.015 134.404ZM660.583 120.988C667.655 120.988 673.271 118.492 677.431 113.5C681.591 108.508 683.671 101.644 683.671 92.908C683.671 84.276 681.591 77.568 677.431 72.784C673.271 67.896 667.603 65.452 660.427 65.452C653.355 65.452 647.687 67.948 643.423 72.94C639.263 77.828 637.183 84.64 637.183 93.376C637.183 101.904 639.263 108.664 643.423 113.656C647.687 118.544 653.407 120.988 660.583 120.988ZM745.791 134.56C737.783 134.56 730.711 132.792 724.575 129.256C718.543 125.72 713.811 120.832 710.379 114.592C706.947 108.352 705.231 101.176 705.231 93.064C705.231 84.848 706.895 77.672 710.223 71.536C713.655 65.296 718.439 60.46 724.575 57.028C730.711 53.596 737.731 51.88 745.635 51.88C753.331 51.88 759.987 53.544 765.603 56.872C771.323 60.096 775.691 64.62 778.707 70.444C781.827 76.268 783.387 83.184 783.387 91.192C783.387 92.44 783.335 93.636 783.231 94.78C783.231 95.82 783.127 96.912 782.919 98.056H716.151V85.888H771.531L767.475 90.724C767.475 82.196 765.551 75.696 761.703 71.224C757.855 66.752 752.499 64.516 745.635 64.516C738.251 64.516 732.375 67.064 728.007 72.16C723.743 77.152 721.611 84.12 721.611 93.064C721.611 102.112 723.743 109.184 728.007 114.28C732.375 119.376 738.407 121.924 746.103 121.924C750.783 121.924 754.839 120.988 758.271 119.116C761.703 117.14 764.251 114.28 765.915 110.536H781.203C778.603 118.024 774.183 123.9 767.943 128.164C761.807 132.428 754.423 134.56 745.791 134.56ZM827.272 134.56C819.68 134.56 812.92 132.792 806.992 129.256C801.064 125.616 796.384 120.676 792.952 114.436C789.624 108.196 787.96 101.072 787.96 93.064C787.96 85.056 789.624 77.984 792.952 71.848C796.384 65.608 801.064 60.72 806.992 57.184C812.92 53.648 819.628 51.88 827.116 51.88C833.46 51.88 839.128 53.076 844.12 55.468C849.112 57.86 853.22 61.188 856.444 65.452C859.668 69.716 861.748 74.76 862.684 80.584H847.396C846.356 75.904 844.068 72.16 840.532 69.352C837.1 66.544 832.732 65.14 827.428 65.14C822.852 65.14 818.848 66.284 815.416 68.572C811.984 70.86 809.332 74.084 807.46 78.244C805.588 82.404 804.652 87.344 804.652 93.064C804.652 98.68 805.588 103.62 807.46 107.884C809.332 112.148 811.984 115.476 815.416 117.868C818.848 120.156 822.904 121.3 827.584 121.3C832.68 121.3 836.996 119.948 840.532 117.244C844.172 114.436 846.512 110.692 847.552 106.012H862.84C861.8 111.732 859.616 116.724 856.288 120.988C853.064 125.252 848.956 128.58 843.964 130.972C838.972 133.364 833.408 134.56 827.272 134.56ZM905.906 134.56C896.65 134.56 889.838 132.428 885.47 128.164C881.206 123.796 879.074 117.4 879.074 108.976V35.188L895.142 29.104V109.132C895.142 113.292 896.234 116.36 898.418 118.336C900.602 120.312 904.138 121.3 909.026 121.3C910.898 121.3 912.562 121.144 914.018 120.832C915.474 120.52 916.722 120.156 917.762 119.74V132.844C916.618 133.364 915.006 133.78 912.926 134.092C910.846 134.404 908.506 134.56 905.906 134.56ZM863.162 66.388V53.44H917.762V66.388H863.162ZM959.403 134.56C951.291 134.56 944.167 132.792 938.031 129.256C931.895 125.616 927.111 120.676 923.679 114.436C920.247 108.092 918.531 100.916 918.531 92.908C918.531 84.796 920.247 77.672 923.679 71.536C927.215 65.4 931.999 60.616 938.031 57.184C944.167 53.648 951.291 51.88 959.403 51.88C967.619 51.88 974.795 53.648 980.931 57.184C987.067 60.616 991.799 65.4 995.127 71.536C998.559 77.672 1000.28 84.796 1000.28 92.908C1000.28 100.916 998.559 108.092 995.127 114.436C991.799 120.676 987.067 125.616 980.931 129.256C974.795 132.792 967.619 134.56 959.403 134.56ZM959.403 121.3C964.291 121.3 968.503 120.104 972.039 117.712C975.679 115.32 978.539 111.992 980.619 107.728C982.699 103.464 983.739 98.472 983.739 92.752C983.739 84.224 981.451 77.516 976.875 72.628C972.403 67.636 966.579 65.14 959.403 65.14C952.331 65.14 946.507 67.636 941.931 72.628C937.459 77.62 935.223 84.328 935.223 92.752C935.223 98.472 936.211 103.464 938.187 107.728C940.267 111.992 943.127 115.32 946.767 117.712C950.511 120.104 954.723 121.3 959.403 121.3ZM1010.7 133V53.44H1026.14V73.252H1026.92V133H1010.7ZM1026.92 91.504L1024.89 72.628C1026.77 65.868 1029.99 60.72 1034.57 57.184C1039.14 53.648 1044.6 51.88 1050.95 51.88C1053.34 51.88 1055 52.088 1055.94 52.504V67.792C1055.42 67.584 1054.69 67.48 1053.75 67.48C1052.82 67.376 1051.67 67.324 1050.32 67.324C1042.52 67.324 1036.65 69.352 1032.69 73.408C1028.85 77.464 1026.92 83.496 1026.92 91.504Z" fill="black"/>
</svg>
